<?xml version="1.0" encoding="UTF-8"?>
<svg id="Layer_2" data-name="Layer 2" xmlns="http://www.w3.org/2000/svg" viewBox="0 0 516.96 497.67">
  <defs>
    <style>
      .cls-1 {
        fill: #283d59;
        stroke-width: 0px;
      }
    </style>
  </defs>
  <g id="Layer_1-2" data-name="Layer 1">
    <g>
      <path class="cls-1" d="m266.07,296.31v-1.77h.64c3.12,0,7.77-2.33,7.77-8.76v-69.5l-.89.89c-11.95,13.45-17.18,36.95-15.31,51.89.38,4,.92,7.48,1.64,10.65.26,1.3.01,2.58-.7,3.63-.79,1.16-2.06,1.96-3.6,2.25-.38.07-.76.1-1.13.1-1.96,0-3.79-.93-4.78-2.42-.83-1.26-.98-2.77-.39-4.16,1.25-3.13,2.09-6.55,2.43-9.87,1.08-15.02-4.33-38.39-16.49-52.1l-.04-.04v68.68c0,6.43,4.65,8.76,7.77,8.76h.64v1.77h-27.32v-1.77h.64c3.12,0,7.77-2.33,7.77-8.76v-77.31c0-6.43-4.65-8.76-7.77-8.76h-.64v-1.77h27.32v1.77h-.64c-2.35,0-5.54,1.27-7,4.8,4.97,4.83,13.52,15.74,18.54,36.83,2.71-11.05,9.51-28.8,18.83-37.63-1.61-2.94-4.54-4-6.63-4h-.64v-1.77h27.32v1.77h-.64c-2.74,0-7.93,1.83-7.93,8.76v77.31c0,6.93,5.19,8.76,7.93,8.76h.64v1.77h-27.32Z"/>
      <path class="cls-1" d="m216.93,295.18c3.3,0,8.41-2.47,8.41-9.4v-77.31c0-6.92-5.11-9.4-8.41-9.4v-.5h26.05v.5c-2.64,0-6.26,1.48-7.75,5.6,6.59,6.26,14.84,18.79,19.29,39.56,2.31-11.37,9.73-31.32,19.62-40.39-1.65-3.46-4.94-4.78-7.42-4.78v-.5h26.04v.5c-3.46,0-8.57,2.47-8.57,9.4v77.31c0,6.92,5.11,9.4,8.57,9.4v.49h-26.04v-.49c3.3,0,8.41-2.47,8.41-9.4v-71.05l-1.98,1.98c-11.87,13.35-17.47,36.59-15.5,52.42.33,3.46.82,7.09,1.65,10.71.5,2.47-1.15,4.62-3.79,5.11-3.79.66-6.92-2.47-5.6-5.6,1.32-3.3,2.14-6.76,2.47-10.06,1.15-15.99-4.95-39.4-16.65-52.58l-1.15-1.15v70.22c0,6.92,5.11,9.4,8.41,9.4v.49h-26.05v-.49Z"/>
      <path class="cls-1" d="m76.79,296.33v-1.77h.64c3.09,0,7.69-2.31,7.69-8.67v-76.6c0-1.38-.35-4.59-3.61-4.59h-29.65c-2.56,0-4.65,1.86-5.67,3.46-.75,1.23-.94,2.67-.52,4.04.37,1.22,1.2,2.24,2.21,2.71.38.19.83.29,1.31.29,1.04,0,2.33-.49,2.72-1.56l.03-.07c.17-.34.15-.57-.09-.94-.19-.18-.35-.27-.43-.29l-.07.03h-.64c-.5,0-.97-.23-1.29-.64-.31-.4-.43-.9-.33-1.39.04-.87.78-1.57,1.69-1.57.11,0,.22.01.33.03h.18c1.38.2,2.5.99,3.24,2.28.88,1.75.24,3.42-.31,4.52-.91,1.49-2.67,2.35-4.74,2.35-.99,0-1.94-.2-2.77-.57-.61-.21-1.01-.61-1.36-.96-1.48-1.32-2.31-3.23-2.31-5.35v-12.23h94.44v12.23c0,2.13-.83,4.04-2.34,5.38-.32.32-.72.72-1.33.93-.83.37-1.78.57-2.77.57-2.06,0-3.82-.86-4.71-2.3-.58-1.15-1.21-2.82-.35-4.54.75-1.32,1.88-2.11,3.26-2.31h.04s.14,0,.14,0c.11-.02.22-.03.33-.03.9,0,1.64.7,1.69,1.57.1.49-.02.99-.33,1.39-.32.41-.79.64-1.29.64h-.64l-.07-.04c-.07.03-.23.11-.42.3-.24.38-.26.6-.09.94l.03.07c.39,1.07,1.68,1.56,2.72,1.56.48,0,.93-.1,1.29-.28,1.03-.48,1.86-1.5,2.23-2.72.42-1.38.23-2.82-.53-4.05-1.01-1.59-3.1-3.45-5.66-3.45h-29.55c-.94,0-3.61.84-3.61,4.59v76.6c0,6.36,4.6,8.67,7.69,8.67h.64v1.77h-27.08Z"/>
      <path class="cls-1" d="m77.43,295.2c3.27,0,8.33-2.45,8.33-9.31v-76.6c0-2.12-.82-5.23-4.25-5.23h-29.65c-2.78,0-5.06,1.96-6.21,3.76-1.8,2.94-.49,6.53,1.96,7.68,1.63.82,4.25.16,4.9-1.63.33-.65.16-1.14-.16-1.63-.33-.33-.82-.65-1.14-.49h-.49c-.65,0-1.14-.65-.98-1.31,0-.65.65-1.14,1.31-.98h.16c1.14.16,2.12.82,2.78,1.96.65,1.31.33,2.61-.33,3.92-1.31,2.12-4.57,2.45-6.7,1.47-.49-.16-.82-.49-1.14-.82-1.47-1.31-2.12-3.1-2.12-4.9v-11.6h93.16v11.6c0,1.8-.65,3.59-2.12,4.9-.33.33-.65.65-1.14.82-2.12.98-5.39.65-6.7-1.47-.65-1.31-.98-2.61-.33-3.92.65-1.14,1.63-1.8,2.78-1.96h.16c.65-.16,1.31.33,1.31.98.16.65-.33,1.31-.98,1.31h-.49c-.33-.16-.82.16-1.14.49-.33.49-.49.98-.16,1.63.65,1.8,3.27,2.45,4.9,1.63,2.45-1.14,3.76-4.74,1.96-7.68-1.14-1.8-3.43-3.76-6.21-3.76h-29.54c-1.31,0-4.25,1.14-4.25,5.23v76.6c0,6.86,5.06,9.31,8.33,9.31v.49h-25.81v-.49Z"/>
      <path class="cls-1" d="m318.43,297.11c-17.39,0-30.01-20.72-30.01-49.26s12.62-49.26,30.01-49.26,29.84,20.72,29.84,49.26-12.55,49.26-29.84,49.26Zm-1.7-94.33c-.18,0-.36,0-.54.02-2.81.13-5.42,1.5-7.76,4.09-6.7,7.39-10.1,23.05-9.09,41.9,1.21,25.66,10.02,44.28,20.95,44.28.14,0,.28,0,.42,0,10.82-.66,18.06-20.5,16.85-46.16-1.36-25.56-10.11-44.12-20.81-44.12Z"/>
      <path class="cls-1" d="m289.06,247.85c0-29.37,13.05-48.62,29.37-48.62s29.21,19.25,29.21,48.62-13.05,48.62-29.21,48.62-29.37-19.25-29.37-48.62Zm49.11-.98c-1.47-27.57-11.09-45.36-22.03-44.71-10.93.49-18.93,19.09-17.46,46.67,1.31,27.74,11.09,45.36,22.03,44.87,10.77-.65,18.76-19.25,17.46-46.83Z"/>
      <path class="cls-1" d="m5.29,296.8v-1.67h.64c2.28,0,5.66-1.69,5.66-6.35v-57.66c0-1.59-.39-2.98-1.13-4.01-1.18-1.16-2.66-1.85-4.18-1.94-.31,0-.79.06-1.41.19-.94.28-1.78.96-2.25,1.87-.41.79-.49,1.66-.23,2.41.31.81,1.33,1.51,2.21,1.51.18,0,.36-.03.52-.09.15-.12.32-.35.38-.58.02-.08,0-.14-.02-.15l-.15-.05-.06-.08-.23-.23-.03-.04c-.53-.71-.43-1.68.23-2.17.26-.2.58-.3.91-.3.48,0,.93.22,1.23.58l.07.07c.75.87.93,1.96.55,3.11-.33,1.21-1.31,2.03-2.75,2.3-.24.06-.53.1-.83.1-2.04,0-3.75-1.68-4.23-3.31-.42-1.38-.17-3.05.66-4.36,1.14-1.62,2.66-2.55,4.43-2.72v-.13h20.76v1.67h-.64c-2.28,0-5.66,1.69-5.66,6.35v57.66c0,4.66,3.38,6.35,5.66,6.35h.64v1.67H5.29Z"/>
      <path class="cls-1" d="m5.93,295.77c2.56,0,6.3-1.87,6.3-6.99v-57.66c0-1.87-.49-3.35-1.28-4.43-1.38-1.38-3.05-2.07-4.62-2.16-.49,0-1.08.1-1.57.2-2.36.69-3.64,3.15-2.95,5.12.49,1.28,2.26,2.36,3.64,1.77.29-.2.59-.59.69-.98.1-.39-.1-.79-.39-.89l-.2-.2c-.29-.39-.29-.98.1-1.28.39-.3.98-.2,1.28.2l.1.1c.59.69.69,1.57.39,2.46-.3,1.08-1.18,1.67-2.26,1.87-1.87.49-3.84-1.08-4.33-2.76-.39-1.28-.1-2.75.59-3.84,1.18-1.67,2.75-2.46,4.53-2.46v-.1h19.48v.39c-2.56,0-6.3,1.87-6.3,6.99v57.66c0,5.12,3.74,6.99,6.3,6.99v.39H5.93v-.39Z"/>
      <path class="cls-1" d="m62.82,298.26c-.7,0-1.38-.32-1.86-.87-.62-.59-2.3-.73-2.93-.79h-31.29s0-1.67,0-1.67h.64c2.28,0,5.66-1.66,5.66-6.25v-57.76c0-4.55-3.47-6.25-5.66-6.25h-.64v-1.67h20.66v1.67h-.64c-2.19,0-5.66,1.7-5.66,6.25v56.61c.57,2.76,2.01,4.19,4.3,4.25h13.5c-1.02-3.6-1.69-7.3-1.95-10.73-.45-7.52,1.64-14.04,3.83-16.37.68-.72,1.38-1.08,2.09-1.08.46,0,.9.16,1.3.46.75.56,1.11,1.47.95,2.37-.16.87-.79,1.56-1.65,1.8-3.71,1.18-4.3,7.47-3.68,12.49.46,4.19,2.15,10.34,4.8,13.97.73,1.03.5,2.38-.53,3.15-.37.27-.8.4-1.25.4Z"/>
      <path class="cls-1" d="m61.43,296.95s0-.1-.1-.1l.1.1c-.69-.69-2.16-.89-3.35-.98h-30.7v-.39c2.46,0,6.3-1.77,6.3-6.89v-57.76c0-5.02-3.84-6.89-6.3-6.89v-.39h19.38v.39c-2.46,0-6.3,1.87-6.3,6.89v56.68c.2.98.98,4.72,4.92,4.82h14.37c-1.08-3.64-1.87-7.58-2.16-11.41-.59-9.84,3.35-18.6,6.2-16.43,1.18.89.89,2.66-.49,3.05-4.33,1.38-4.72,8.46-4.13,13.18.49,4.53,2.26,10.63,4.92,14.27.49.69.39,1.67-.39,2.26-.69.49-1.67.29-2.26-.39Z"/>
      <path class="cls-1" d="m430.65,296.33v-1.8h.64c3.11,0,7.73-2.3,7.73-8.64v-72.54c0-6.34-4.62-8.64-7.73-8.64h-6.21l-.1-.51c-.12-.57-.2-1.08-.25-1.55-.12-1.03-.4-1.99-.84-2.86l-.47-.93h51.65l-.95,1.06c-19,21.3-13.35,45.06-13.29,45.3.46,2.73-1.3,5.29-3.91,5.75-.25.03-.45.04-.66.04h0c-2.5,0-4.52-1.68-4.92-4.09-2.39-13.66,3.66-33.52,12.71-41.86.02-.11-.03-.19-.06-.23-.06-.07-.15-.12-.24-.12h-6.7c-3.11,0-7.73,2.3-7.73,8.64v72.54c0,6.34,4.62,8.64,7.73,8.64h.64v1.8h-27.03Z"/>
      <path class="cls-1" d="m473.64,199.49h-49.19c.47.93.78,1.98.9,3.07.06.5.14,1,.24,1.5h5.69c3.27,0,8.37,2.48,8.37,9.28v72.54c0,6.8-5.1,9.28-8.37,9.28v.52h25.75v-.52c-3.27,0-8.37-2.48-8.37-9.28v-72.54c0-6.8,5.1-9.28,8.37-9.28h6.7c.6,0,1.05.55.93,1.13-.02.08-.03.14-.03.18-8.88,8.01-15.03,27.97-12.68,41.43.39,2.35,2.48,3.79,4.84,3.53,2.22-.39,3.79-2.61,3.4-4.97-.26-1.05-5.49-24.66,13.44-45.88Z"/>
      <path class="cls-1" d="m154.4,325.14c-.37,0-.75-.02-1.14-.05-4.18-.34-7.13-1.7-9.02-4.17-4.33-5.63-2.43-16.06-.02-29.26,1.46-7.99,3.1-17.05,3.54-26.32.14-3.14-.59-5.97-2.24-8.66-2.41-3.93-6.44-7.01-10.34-9.99-5.72-4.37-11.13-8.5-11.5-15.01,0-7.34,5.58-10.75,9.35-10.75,2.39,0,4.01,1.27,4.21,3.33.37,3.43-2.52,3.87-4.62,4.18-1.42.21-2.76.42-3.27,1.25-.38.62-.32,1.64.16,3.06,1.21,3.55,5.31,5.17,8.6,5.17,1.34,0,2.64-.25,3.74-.72,2.48-1.24,4.21-3.01,5.56-5.71l.04-.08.06-.06c.88-1.25,3.24-17.96.65-25.56-1.71-4.8-6.2-8.85-12.02-10.84-3.01-1.04-5.66-1.59-7.67-1.59s-3.42.54-4.14,1.61c-.72.97-.95,2.22-1.06,3.08v99.58c0,6.34,4.62,8.64,7.73,8.64h.64v1.8h-27.03v-1.8h.64c2.99,0,7.73-2.31,7.73-8.51v-98.45c0-6.34-4.62-8.65-7.73-8.65h-.64v-1.79h28.09c.51.03,11.64.7,18.1,4.53,7.26,4.37,11.01,13.38,10.03,24.1-1,10.92-6.79,20.33-14.57,23.85.8.63,1.55,1.28,2.27,1.97,16.06,15.26,9.28,41.32,5.22,56.89-.4,1.55-.78,2.98-1.09,4.27-.08.39-.27,1.02-.51,1.82-1.15,3.91-3.85,13.05.27,14.82.45.16.96.25,1.47.25.67,0,1.29-.16,1.76-.44.41-.24.64-.55.65-.85,0-.39-.33-.83-.96-1.25l-.06-.04c-1.8-1.51-2.01-4.14-.47-5.99.78-.94,1.93-1.48,3.15-1.48,2.08,0,4.41,1.57,4.89,5.06.45,2.52-.49,5.14-2.45,6.79-1.49,1.28-3.57,1.96-5.99,1.96h0Z"/>
      <path class="cls-1" d="m162.2,316.48c-.66-4.7-4.97-5.62-6.93-3.26-1.31,1.57-1.18,3.79.39,5.09,1.76,1.18,1.47,2.47.29,3.18-.92.55-2.37.74-3.81.22-5.49-2.36-.66-14.91-.13-17.39,3.35-13.76,13.46-44-3.96-60.55-.95-.91-1.98-1.77-3.1-2.59,16.73-6.28,21.57-37.57,5.49-47.24-6.4-3.8-17.77-4.45-17.77-4.45h-27.45v.52c3.27,0,8.37,2.49,8.37,9.28v98.45c0,6.66-5.09,9.15-8.37,9.15v.53h25.75v-.53c-3.27,0-8.36-2.48-8.36-9.28v-99.62c.13-1.04.39-2.35,1.18-3.4,2.23-3.26,8.76-1.57,12.55-.26,5.36,1.83,10.46,5.75,12.42,11.24,2.62,7.72.26,25.02-.78,26.19-1.57,3.14-3.53,4.84-5.88,6.01-4.58,1.96-11.5.13-13.2-4.83-2.74-8.11,8.37-2.49,7.71-8.63-.53-5.36-12.28-2.88-12.28,7.32.62,10.65,15.82,15.01,21.76,24.71,1.58,2.57,2.5,5.5,2.33,9.02-1.41,30.31-15.6,57.43,4.92,59.08,3.02.24,5.21-.52,6.66-1.76,1.94-1.64,2.6-4.13,2.23-6.22Z"/>
      <path class="cls-1" d="m159.28,327.75c-6.94,0-11.67-1.63-14.48-4.97-5.06-6.02-3.16-16.79-.97-29.25,2.05-11.64,4.37-24.83,1.6-37.04-.63-2.79.17-5.64.95-8.4.41-1.45.83-2.94,1.04-4.41l.17-1.23.9.85c16.06,15.26,9.28,41.32,5.23,56.89-.4,1.55-.78,2.98-1.09,4.27-.08.39-.27,1.02-.51,1.82-1.15,3.91-3.85,13.05.27,14.82.45.16.96.25,1.47.25.67,0,1.29-.16,1.76-.44l.36-.21.34.24c.33.23.7.44,1.09.6.82.29,1.7.46,2.6.49.09,0,.18,0,.27,0,2.33,0,4.4-1.03,4.81-2.39.3-1.01-.37-2.12-1.89-3.14l-.05-.04c-3.05-2.54-3.4-6.98-.79-10.11,1.32-1.58,3.25-2.48,5.31-2.48,3.55,0,7.5,2.69,8.33,8.71.63,3.49-.31,7.06-2.57,9.76-2.06,2.46-6.18,5.39-14.13,5.39Z"/>
      <path class="cls-1" d="m159.28,327.12c-33.58,0-5.93-38.58-13.23-70.76-.92-4.05,1.39-8.3,1.99-12.58,17.42,16.55,7.31,46.79,3.96,60.55-.53,2.48-5.36,15.03.13,17.39,1.44.52,2.89.33,3.81-.22.36.25.77.48,1.21.66.95.34,1.9.51,2.82.54,4.75.15,8.32-3.52,3.56-6.69-2.84-2.36-3.07-6.38-.71-9.22,3.55-4.25,11.34-2.6,12.52,5.91,1.18,6.62-3.31,14.42-16.07,14.42Z"/>
      <path class="cls-1" d="m193.79,296.33v-1.8h.64c.84,0,2.96-.19,4.37-1.9,1.25-1.51,1.59-3.78,1.02-6.76l-13.85-60.52-8.64,41.51c.79-.07,1.57-.1,2.33-.1,8.04,0,14.35,3.87,16.88,10.36,2.07,5.29.95,10.96-2.85,14.46-1.98,1.9-4.96,3.05-7.95,3.05-2.48,0-4.74-.8-6.37-2.26-2.56-2.4-3.58-5.14-2.94-7.94.12-.99.6-2.1,1.41-3.24,1.06-1.31,2.9-2.59,4.67-2.59,1.22,0,2.18.63,2.7,1.79l.02.06c.51,1.52-.21,3.15-1.65,3.79-.37.19-.74.19-1.17.19-.53,0-1.07.52-1.36,1.28-.21.76-.05,1.72.44,2.41.94,1.38,2.66,2.17,4.72,2.17,1.81,0,3.61-.61,4.8-1.63,2.83-2.45,3.7-6.6,2.21-10.59-1.88-5.04-6.74-8.05-13.01-8.05-.3,0-.61,0-.92.02-.67,0-1.32.11-2.01.22-.21.03-.41.07-.62.1l-3.18,15.38c-.62,3.06-.32,5.38.91,6.88,1.35,1.65,3.47,1.9,4.61,1.9h.64v1.8h-21.4v-1.8h.64c1.19,0,7.22-.36,9.46-7.53l3.13-14.8c-2.72,1.33-5.02,3.4-6.55,5.91-.64.85-1.52,1.32-2.47,1.32-.54,0-1.08-.16-1.55-.45-1.38-.86-1.81-2.57-.99-3.89.15-.3.33-.48.48-.63l.14-.14c2.54-2.14,5.08-4.15,8.71-5.63,1.07-.36,2.15-.72,3.23-.98l14.27-68.86h3.64l19.82,86.89h.03c1.38,5.91,4.17,8.78,8.53,8.78h.64v1.8h-25.59Z"/>
      <path class="cls-1" d="m158.87,295.17c3.14,0,8.1-1.7,10.06-7.97l3.4-16.08c-3.27,1.31-6.14,3.66-7.97,6.67-.78,1.05-2.09,1.31-3.14.65-1.05-.65-1.44-1.96-.78-3.01.13-.26.26-.39.39-.52l.13-.13c2.48-2.09,4.97-4.05,8.5-5.49,1.18-.39,2.35-.78,3.53-1.05l14.25-68.75h2.61l19.74,86.53v-.13c1.83,7.84,5.88,9.28,9.15,9.28v.52h-24.31v-.52c3.01,0,7.45-1.96,6.01-9.41l-14.51-63.39-9.41,45.22c18.95-2.22,25.1,15.82,16.73,23.53-3.4,3.27-9.8,4.05-13.46.78-2.09-1.96-3.4-4.44-2.75-7.32.13-1.05.65-2.09,1.31-3.01,1.7-2.09,5.1-3.53,6.27-.91.39,1.18-.13,2.48-1.31,3.01-.26.13-.52.13-.92.13-.78,0-1.57.65-1.96,1.7-.26.92-.13,2.09.52,3.01,2.22,3.27,7.71,3.01,10.46.65,6.8-5.88,2.48-20.39-12.16-19.74-1.05,0-2.09.26-3.14.39l-3.27,15.82c-1.57,7.71,2.88,9.54,6.14,9.54v.52h-20.13v-.52Z"/>
      <path class="cls-1" d="m394.26,296.33c-.58,0-1.41-.07-1.94-.71-.76-.91-.48-2.4.03-5.1.69-3.67,1.72-9.21,1.14-17.66-2.83-23-13.55-51.53-30.49-60.69v73.72c0,6.34,4.62,8.64,7.73,8.64h.64v1.8h-27.03v-1.8h.64c3.11,0,7.73-2.3,7.73-8.64v-76.59c0-6.34-4.62-8.64-7.73-8.64h-.64v-1.8h18.02c7.26.56,26.82,21.43,34.78,59.68v-49.24c0-6.34-4.62-8.64-7.73-8.64h-.64v-1.8h27.02v1.8h-.64c-3.11,0-7.73,2.3-7.73,8.64v76.59c0,6.34,4.62,8.64,7.73,8.64h.64v1.8h-21.55Z"/>
      <path class="cls-1" d="m344.98,295.17c3.27,0,8.37-2.48,8.37-9.28v-76.59c0-6.8-5.1-9.28-8.37-9.28v-.52h17.38c6.8.52,28.36,22.48,35.42,66.01v-56.2c0-6.8-5.1-9.28-8.37-9.28v-.52h25.75v.52c-3.27,0-8.37,2.48-8.37,9.28v76.59c0,6.8,5.1,9.28,8.37,9.28v.52h-20.91c-4.44,0,1.05-5.75-.13-22.87-3.01-24.44-14.51-53.2-31.76-61.69v74.76c0,6.8,5.1,9.28,8.37,9.28v.52h-25.75v-.52Z"/>
      <path class="cls-1" d="m491.62,297.11c-17.33,0-29.92-20.72-29.92-49.26s12.58-49.26,29.92-49.26,22.9,15.85,23.47,17.66c.38,1.15-.19,1.9-.92,2.14-.23.08-.45.11-.67.11-.76,0-1.37-.46-1.69-1.27-3.49-9.22-10.35-14.5-18.83-14.5h-.3c-2.83,0-5.83,1.58-8.67,4.55-6.2,6.5-12.47,20.8-11.49,41.45,1.33,25.63,10.15,44.23,20.98,44.23.15,0,.3,0,.44-.01,12.25-1,15.74-25.12,15.99-33.5.83-21.46-4.66-34.15-17.27-39.92-3.82-1.66-5.16-4.09-3.99-7.21,1.07-2.68,2.92-3.24,4.27-3.24,1.84,0,4.09.96,6.89,2.95,19.68,13.91,17.54,36.6,16.51,47.51l-.04.39c-1.5,18.5-9.72,37.18-24.68,37.18Z"/>
      <path class="cls-1" d="m462.34,247.85c0-29.41,13.2-48.62,29.28-48.62,17.78,0,22.74,16.86,22.87,17.25.26.78-.13,1.18-.52,1.31-.78.26-1.31-.13-1.57-.78-3.66-9.67-10.98-15.03-19.74-14.9-10.2,0-22.09,19.08-20.78,46.66,1.44,27.71,11.11,45.35,22.09,44.83,12.81-1.05,16.34-25.49,16.6-34.11.65-16.86-2.22-33.46-17.65-40.52-3.01-1.31-4.84-3.27-3.66-6.41,1.83-4.57,6.14-2.87,10.19,0,19.61,13.86,17.25,36.21,16.21,47.32-1.31,16.08-8.37,36.6-24.05,36.6s-29.28-19.21-29.28-48.62Z"/>
      <path class="cls-1" d="m430.66,296.33v-1.8h.64c3.11,0,7.73-2.3,7.73-8.64v-72.54c0-6.34-4.62-8.64-7.73-8.64h-6.7c-.09,0-.18.04-.24.12-.03.04-.08.12-.06.23,9.05,8.34,15.09,28.2,12.71,41.86-.4,2.41-2.42,4.09-4.92,4.09-.2,0-.41-.01-.62-.03-2.65-.47-4.4-3.02-3.96-5.71.07-.29,5.72-24.05-13.28-45.35l-.95-1.06h51.65l-.47.93c-.44.87-.72,1.83-.84,2.86-.05.47-.14.98-.25,1.55l-.1.51h-6.21c-3.11,0-7.73,2.3-7.73,8.64v72.54c0,6.34,4.62,8.64,7.73,8.64h.64v1.8h-27.03Z"/>
      <path class="cls-1" d="m414.7,199.49h49.19c-.47.93-.78,1.98-.9,3.07-.06.5-.14,1-.24,1.5h-5.69c-3.27,0-8.37,2.48-8.37,9.28v72.54c0,6.8,5.1,9.28,8.37,9.28v.52h-25.75v-.52c3.27,0,8.37-2.48,8.37-9.28v-72.54c0-6.8-5.1-9.28-8.37-9.28h-6.7c-.6,0-1.05.55-.93,1.13.02.08.03.14.03.18,8.88,8.01,15.03,27.97,12.68,41.43-.39,2.35-2.48,3.79-4.84,3.53-2.22-.39-3.79-2.61-3.4-4.97.26-1.05,5.49-24.66-13.44-45.88Z"/>
      <path class="cls-1" d="m34.6,334.79c-.98-2.5-1.9-5.03-2.79-7.57h.02c.88,2.55,1.81,5.07,2.77,7.57Z"/>
      <path class="cls-1" d="m411.3,444.79c-17.25,13.56-36.19,24.72-56.53,33.33-30.68,12.98-63.27,19.56-96.86,19.56s-66.18-6.58-96.86-19.56c-8.77-3.71-17.27-7.89-25.49-12.53-3.18-1.79-6.31-3.65-9.4-5.58-15.95-9.96-30.74-21.73-44.21-35.21-11.28-11.28-21.36-23.48-30.18-36.49,8.82,12.99,18.89,25.15,30.13,36.39,22.84,22.86,49.46,40.79,79.1,53.33,7.59,3.21,15.3,6.03,23.12,8.45v-10.01c23.25,7.55,48.05,11.64,73.78,11.64s50.56-4.09,73.83-11.65v10.02c7.82-2.42,15.52-5.25,23.12-8.45,20.32-8.59,39.21-19.72,56.45-33.23Z"/>
      <path class="cls-1" d="m423.3,434.75c-1.4,1.26-2.81,2.49-4.24,3.69,1.42-1.21,2.84-2.44,4.24-3.69Z"/>
      <path class="cls-1" d="m433.94,424.69s-.06.06-.09.1c-.26.26-.52.52-.78.77.29-.29.58-.57.87-.87Z"/>
      <path class="cls-1" d="m438.08,420.46c-1.36,1.42-2.74,2.83-4.14,4.23,1.4-1.4,2.78-2.81,4.14-4.23Z"/>
      <path class="cls-1" d="m484.05,327.17c-.05.16-.11.32-.17.48-7.94,22.66-19.19,43.78-33.2,62.76,13.97-18.98,25.22-40.1,33.15-62.76.06-.16.11-.33.17-.49.01,0,.03,0,.04,0Z"/>
      <path class="cls-1" d="m485.6,322.57c-.04.11-.08.24-.12.36l.07-.36h.05Z"/>
      <path class="cls-1" d="m20.17,175.09c.47-1.5.94-3,1.45-4.49-.5,1.49-.98,2.99-1.44,4.49h0Z"/>
      <path class="cls-1" d="m453.62,111.34c.34.48.34.48,0,0-.29-.43-.6-.86-.91-1.29-.52-.74-1.05-1.47-1.59-2.2-.33-.46-.68-.92-1.01-1.38-.6-.8-1.2-1.6-1.81-2.4-.61-.79-1.22-1.58-1.83-2.37-.4-.5-.8-1.01-1.2-1.51-.47-.58-.93-1.16-1.4-1.74-.04-.04-.08-.1-.11-.14-.47-.58-.94-1.16-1.42-1.74h0c-.68-.82-1.36-1.64-2.04-2.45-.02-.03-.04-.05-.06-.07-.49-.59-.99-1.17-1.5-1.74-.04-.05-.1-.11-.14-.16,0,0,0,0,0,0-.36-.42-.73-.84-1.1-1.26l-.84-.94c-.36-.4-.72-.8-1.08-1.2-.37-.41-.75-.82-1.12-1.24-.06-.06-.11-.12-.17-.18-.19-.2-.37-.41-.56-.61-.19-.2-.38-.41-.57-.61-.59-.64-1.18-1.26-1.77-1.9-.39-.41-.78-.82-1.17-1.23-.17-.17-.33-.34-.49-.51-.17-.17-.34-.34-.5-.52-.54-.55-1.07-1.09-1.61-1.63-.56-.56-1.1-1.12-1.66-1.67-.38-.39-.77-.77-1.16-1.14-.39-.38-.78-.77-1.17-1.14-.15-.14-.31-.29-.46-.43-.63-.6-1.26-1.19-1.89-1.79-.81-.75-1.62-1.51-2.44-2.25-.54-.5-1.09-.99-1.64-1.48,0-.02-.01-.03-.02-.02-.06-.06-.11-.11-.17-.15-.82-.75-1.65-1.47-2.49-2.19-.36-.31-.71-.63-1.08-.93-.45-.38-.89-.77-1.34-1.14-.23-.2-.46-.4-.69-.58-.22-.19-.45-.38-.69-.57-.61-.51-1.23-1.02-1.84-1.53-.62-.51-1.24-1.01-1.86-1.5-.62-.5-1.24-.99-1.87-1.48-1.88-1.47-3.77-2.91-5.69-4.32-.86-.64-1.72-1.26-2.58-1.87-.7-.5-1.39-.99-2.09-1.48-.35-.25-.71-.5-1.07-.74-.25-.17-.5-.33-.74-.5-.51-.35-1.02-.7-1.54-1.05-.22-.15-.45-.3-.67-.45-.24-.16-.48-.33-.73-.48-.04-.03-.09-.06-.13-.09-1.01-.68-2.03-1.35-3.06-2-1.72-1.1-3.45-2.18-5.19-3.24-.12-.08-.25-.15-.38-.23-.87-.53-1.75-1.05-2.64-1.58-.45-.27-.89-.53-1.34-.78-.45-.26-.9-.52-1.35-.77-1.11-.63-2.23-1.26-3.35-1.87-.37-.2-.74-.4-1.11-.6-.37-.2-.75-.4-1.12-.6-.38-.21-.76-.41-1.14-.61h0c-.66-.35-1.32-.7-1.98-1.04-.66-.34-1.33-.69-2-1.01-.66-.33-1.31-.66-1.98-.98-.66-.33-1.33-.64-1.99-.97-.59-.29-1.19-.57-1.78-.84s-1.19-.55-1.79-.82c-.06-.03-.13-.06-.2-.09-.17-.08-.34-.16-.51-.24-.69-.33-1.38-.63-2.09-.94-.73-.33-1.47-.64-2.21-.96-.08-.03-.15-.07-.23-.1-.02,0-.04-.02-.06-.03-.24-.1-.48-.21-.73-.32-.24-.11-.48-.21-.73-.31-.01,0-.03-.01-.04-.02-.01,0-.03-.01-.04-.02-.21-.09-.43-.18-.64-.26-.47-.2-.95-.4-1.42-.59-.48-.19-.96-.38-1.43-.58-.73-.29-1.47-.61-2.21-.89-.41-.17-.82-.33-1.24-.48-.7-.27-1.41-.54-2.12-.8-6.91-2.6-13.97-4.88-21.17-6.84-1.48-.4-2.97-.79-4.47-1.17-7.73-1.94-15.61-3.5-23.62-4.67-1.55-.23-3.11-.44-4.66-.63-8.7-1.09-17.53-1.72-26.49-1.84-1.15-.02-2.31-.03-3.47-.03-.45,0-.9,0-1.35,0-10.04.05-19.93.73-29.65,2-1.63.21-3.25.43-4.88.68-11.15,1.68-22.05,4.14-32.64,7.31-1.6.48-3.18.97-4.77,1.48-.75.24-1.5.49-2.25.74-.75.25-1.49.5-2.24.76-.53.18-1.07.36-1.6.56-1.7.59-3.39,1.21-5.07,1.85-.6.22-1.2.45-1.79.69-2.34.9-4.66,1.84-6.96,2.82-.71.3-1.43.61-2.14.93-.72.31-1.44.63-2.15.95-2.14.96-4.27,1.95-6.37,2.97-.54.26-1.08.52-1.62.79-1.61.79-3.22,1.61-4.8,2.44-.41.22-.83.43-1.24.66-1.14.61-2.28,1.22-3.42,1.85-.73.4-1.45.8-2.17,1.21-.67.38-1.34.75-2,1.14-.23.13-.46.26-.68.4-.61.35-1.21.7-1.81,1.06-.05.03-.1.06-.15.1-.66.39-1.32.78-1.98,1.19-4.31,2.61-8.52,5.35-12.65,8.23-.61.42-1.21.85-1.81,1.28-.59.41-1.17.83-1.74,1.24-6.31,4.56-12.39,9.42-18.2,14.57-.58.5-1.15,1.02-1.73,1.54-.57.51-1.14,1.03-1.71,1.56-.57.52-1.14,1.04-1.7,1.57-.56.53-1.12,1.05-1.68,1.59-.56.53-1.11,1.07-1.67,1.6-1.08,1.05-2.16,2.12-3.23,3.2-.08.08-.15.15-.22.23-.48.49-.97.98-1.45,1.48-.89.91-1.77,1.83-2.63,2.75-.34.36-.68.71-1.01,1.08-.13.14-.26.29-.4.43-.72.77-1.43,1.56-2.14,2.34-.05.05-.1.1-.15.16-.66.73-1.31,1.47-1.96,2.21-.49.56-.98,1.12-1.46,1.68-.34.4-.69.8-1.03,1.21-1.04,1.22-2.06,2.44-3.07,3.69-.4.47-.78.94-1.15,1.42-1.54,1.91-3.06,3.85-4.53,5.82-.01,0-.03.02-.03.03-1.96,2.05-3.64,4.36-5,6.87-.04.06-.08.11-.11.17-.19.27-.38.54-.56.8-.37.52-.73,1.05-1.09,1.59-.44.64-.87,1.28-1.3,1.92-.56.84-1.12,1.69-1.67,2.55-.04.05-.07.11-.1.16-.56.86-1.12,1.73-1.66,2.6-.53.84-1.05,1.68-1.57,2.52-.04.06-.08.12-.11.18-.54.89-1.08,1.77-1.61,2.67-.01.02-.03.04-.04.06h-11.17c.41-.73.82-1.46,1.24-2.19.54-.93,1.07-1.86,1.62-2.78.42-.71.84-1.41,1.27-2.11.31-.52.63-1.05.96-1.56.37-.61.75-1.22,1.13-1.83.77-1.21,1.54-2.42,2.32-3.62.54-.84,1.1-1.67,1.65-2.49.64-.96,1.29-1.91,1.94-2.85.54-.77,1.07-1.54,1.61-2.31.54-.77,1.09-1.53,1.65-2.3.5-.7,1.02-1.4,1.54-2.1.06-.09.13-.19.2-.28,2.22-2.99,4.51-5.93,6.87-8.82.2-.26.41-.5.63-.76.39-.47.78-.95,1.17-1.42.61-.73,1.21-1.45,1.82-2.16,1.22-1.44,2.47-2.87,3.73-4.28.63-.7,1.27-1.4,1.91-2.11,1.28-1.4,2.57-2.79,3.89-4.16.66-.68,1.31-1.37,1.98-2.05.34-.34.67-.68,1-1.01s.66-.68,1-1.01h0c.71-.71,1.43-1.42,2.15-2.12.84-.82,1.68-1.63,2.53-2.43.41-.4.83-.79,1.25-1.18.33-.31.66-.63,1-.94,1.3-1.21,2.62-2.4,3.94-3.57.62-.55,1.24-1.1,1.86-1.64.57-.5,1.14-.99,1.72-1.48.47-.4.93-.8,1.4-1.2.5-.42,1.01-.84,1.52-1.26.34-.29.69-.58,1.04-.86.71-.58,1.42-1.15,2.13-1.74,2.15-1.72,4.33-3.41,6.53-5.05.54-.4,1.07-.8,1.61-1.19.44-.33.88-.66,1.33-.98.66-.48,1.33-.96,2-1.44.64-.46,1.28-.91,1.93-1.35.56-.4,1.12-.78,1.69-1.17.63-.43,1.26-.87,1.9-1.29.54-.36,1.08-.73,1.63-1.08,1.07-.71,2.14-1.41,3.23-2.09.44-.29.89-.57,1.33-.84.43-.28.87-.55,1.31-.82,3.22-2,6.48-3.92,9.79-5.76.87-.49,1.75-.97,2.62-1.44,1.07-.58,2.14-1.15,3.22-1.71.63-.33,1.24-.65,1.87-.97.13-.07.27-.14.4-.2.61-.31,1.22-.62,1.83-.93.42-.21.85-.43,1.28-.63.77-.38,1.54-.75,2.32-1.13.63-.3,1.25-.59,1.88-.89,1.24-.59,2.49-1.15,3.75-1.72,1.69-.76,3.39-1.51,5.1-2.23h0c.95-.4,1.9-.8,2.85-1.19s1.91-.77,2.87-1.15c.11-.04.21-.08.32-.13.85-.33,1.7-.66,2.55-.98.84-.32,1.68-.63,2.51-.94.34-.13.68-.25,1.02-.38.75-.27,1.5-.54,2.25-.8,1.05-.37,2.1-.73,3.15-1.08.61-.21,1.22-.41,1.82-.61.52-.17,1.03-.34,1.56-.5.74-.24,1.47-.47,2.21-.7,10.55-3.28,21.29-5.83,32.17-7.66,1.6-.27,3.21-.53,4.82-.76,10.39-1.54,20.92-2.42,31.56-2.63,1.6-.04,3.19-.06,4.79-.06h.38c9.43,0,18.79.52,28.05,1.55,1.56.18,3.11.36,4.66.57,8.61,1.12,17.13,2.69,25.54,4.72,1.49.35,2.99.73,4.47,1.12,3.7.96,7.38,2.01,11.03,3.15.11.03.22.06.32.1.04,0,.08.03.13.04.52.16,1.03.32,1.55.49.04,0,.08.02.12.04.43.13.87.27,1.3.42.24.07.47.15.7.23.47.15.94.31,1.42.47.17.06.34.11.52.18,1.56.52,3.12,1.07,4.68,1.63.42.15.84.31,1.26.46.16.06.32.12.48.18,1.15.43,2.28.86,3.43,1.3.11.04.22.08.33.13.57.22,1.15.45,1.73.68.57.23,1.15.46,1.73.7.57.23,1.14.47,1.72.7.57.24,1.15.48,1.72.72.65.27,1.3.56,1.95.84.54.23,1.07.47,1.6.7,1.43.63,2.85,1.26,4.26,1.92.34.17.68.32,1.02.48.59.27,1.17.55,1.75.83.47.22.94.45,1.42.68.19.08.36.17.55.27.5.24,1,.49,1.5.74.67.33,1.33.67,2,1.01.66.34,1.33.68,1.99,1.03.81.42,1.61.84,2.41,1.27.72.38,1.44.77,2.16,1.17.18.09.36.19.54.29.64.35,1.27.7,1.9,1.06.07.03.14.07.2.11.31.17.62.34.93.52.73.41,1.44.82,2.16,1.25.58.33,1.15.67,1.74,1.01.13.08.26.15.4.24.71.42,1.42.85,2.12,1.28.71.43,1.42.86,2.11,1.3.76.47,1.51.94,2.27,1.43.75.48,1.51.96,2.25,1.45.61.4,1.23.8,1.83,1.21.77.51,1.54,1.03,2.3,1.55.77.52,1.52,1.05,2.28,1.58.72.5,1.44,1.01,2.16,1.53.17.11.33.23.49.35.62.45,1.24.9,1.86,1.35.75.55,1.49,1.1,2.23,1.66.74.56,1.47,1.12,2.21,1.68,1.39,1.07,2.77,2.16,4.13,3.25.08.06.16.12.24.19.45.36.91.73,1.36,1.1.38.31.76.62,1.14.94.33.26.64.53.96.8.68.57,1.37,1.14,2.04,1.72.05.04.1.08.15.13.7.6,1.4,1.21,2.09,1.81.71.62,1.42,1.24,2.12,1.87.7.63,1.4,1.26,2.09,1.9,2.78,2.54,5.51,5.16,8.2,7.84.03.03.05.05.08.08.52.52,1.04,1.05,1.56,1.57.54.55,1.07,1.1,1.61,1.66.54.56,1.08,1.12,1.61,1.68.46.48.91.96,1.36,1.45,1.02,1.09,2.03,2.19,3.03,3.31,1.44,1.61,2.87,3.24,4.27,4.88,1.07,1.25,2.14,2.51,3.18,3.8.73.9,1.47,1.8,2.19,2.71.73.91,1.44,1.82,2.15,2.74.15.19.29.37.43.56.15.19.29.38.43.57,1.16,1.51,2.3,3.02,3.41,4.56.56.77,1.11,1.54,1.66,2.31.28.38.56.77.82,1.16.27.39.54.78.82,1.17.52.75,1.03,1.5,1.54,2.25.1.14.2.28.29.43.36.53.71,1.05,1.06,1.58h-11.74Z"/>
      <path class="cls-1" d="m213.09,107.08c0,.3,0,.61-.01.91-.04,1.6-.18,3.17-.42,4.72-.36,2.32-.94,4.58-1.73,6.74,0,0,0,0,0,.01-.29.8-.6,1.57-.94,2.34,0,0,0,.02,0,.03-2.22,5-5.54,9.4-9.64,12.9-6.36,5.44-14.6,8.72-23.6,8.72-16.57,0-30.05-13.48-30.05-30.04,0-10.64,6.69-19.76,16.08-23.35,2.29-.88,4.74-1.43,7.29-1.6.54-.03,1.08-.05,1.62-.05v9.57c-8.51,0-15.42,6.92-15.42,15.42,0,11.29,9.18,20.47,20.48,20.47s20.07-6.39,24.32-15.57c0-.01,0-.02.01-.03.36-.78.68-1.58.97-2.4,0-.01,0-.02.01-.03.8-2.3,1.29-4.75,1.43-7.3.03-.48.04-.97.04-1.45,0-1.19-.06-2.35-.18-3.51-1.76-17.48-16.56-31.17-34.5-31.17-7.62,0-14.79,1.93-21.07,5.32-.21.11-.41.22-.63.34-1.36.75-2.67,1.58-3.94,2.49-.18.11-.36.25-.54.38-11.13,8.1-18.38,21.24-18.38,36.03h-9.57c0-6.13,1.02-12.02,2.9-17.51,3.06-8.93,8.4-16.81,15.31-22.94.15-.14.31-.27.47-.41,1.1-.96,2.23-1.87,3.41-2.73h0c.17-.13.34-.26.52-.38,8.88-6.39,19.76-10.15,31.51-10.15,4.77,0,9.37.76,13.67,2.16h0s0,0,0,0c8.6,2.8,16.05,8.17,21.44,15.21h0c4.93,6.43,8.13,14.23,8.92,22.73.13,1.37.2,2.75.2,4.15Z"/>
      <path class="cls-1" d="m465.36,111.34h-11.75c-.29-.43-.6-.86-.91-1.29-.52-.74-1.05-1.47-1.59-2.2-.33-.46-.68-.92-1.01-1.38-.6-.8-1.2-1.6-1.81-2.4-.61-.79-1.22-1.58-1.83-2.37-.4-.5-.8-1.01-1.2-1.51-.47-.58-.93-1.16-1.4-1.74-.04-.04-.08-.1-.11-.14-.01-.02-.03-.04-.04-.06-1.38-2.3-3.12-4.36-5.13-6.1,0,0,0,0,0,0-3.92-3.41-8.9-5.63-14.36-6.12h0c-.75-.08-1.51-.11-2.28-.11-2.58,0-5.05.51-7.31,1.44-2.78,1.13-5.23,2.89-7.18,5.1h0c-2.14,2.41-3.69,5.36-4.41,8.61h0c-.31,1.37-.47,2.79-.47,4.25,0,5.62,3.21,10.51,7.89,12.93h0c1.37.71,2.87,1.21,4.44,1.45.72.11,1.46.17,2.21.17,5.89,0,10.69-4.79,10.69-10.68,0-4.19-3.41-7.59-7.59-7.59v-9.57c9.46,0,17.16,7.7,17.16,17.16,0,8.4-5.14,15.62-12.44,18.68-2.41,1.01-5.05,1.57-7.82,1.57-1.77,0-3.5-.19-5.16-.56,0,0,0,0-.01,0-1.55-.34-3.04-.82-4.46-1.45h0c-4.12-1.8-7.64-4.72-10.18-8.38-2.22-3.18-3.69-6.93-4.15-10.97-.11-.91-.16-1.83-.16-2.76s.04-1.8.12-2.68c1.36-14.72,13.77-26.28,28.84-26.28.56,0,1.12.01,1.67.04.33.02.66.04,1,.06,1.52.11,3.03.33,4.5.64,1.88.39,3.69.93,5.45,1.61,2.63,1.02,5.56,2.35,8.57,3.94,1.44,1.61,2.87,3.24,4.27,4.88,1.07,1.25,2.14,2.51,3.18,3.8.73.9,1.47,1.8,2.19,2.71.73.91,1.44,1.82,2.15,2.74.15.19.29.37.43.56.15.19.29.38.43.57,1.16,1.51,2.3,3.02,3.41,4.56.56.77,1.11,1.54,1.66,2.31.28.38.56.77.82,1.16.27.39.54.78.82,1.17.52.75,1.03,1.5,1.54,2.25.1.14.2.28.29.43.36.53.71,1.05,1.06,1.58Z"/>
      <path class="cls-1" d="m124.28,119.72c0,15.64-12.72,28.36-28.36,28.36-13.04,0-23.65-10.61-23.65-23.65,0-10.96,8.91-19.88,19.88-19.88v9.57c-5.69,0-10.31,4.62-10.31,10.31,0,7.76,6.31,14.08,14.08,14.08,10.36,0,18.79-8.43,18.79-18.79,0-13.61-11.08-24.69-24.69-24.69-9.11,0-17.35,3.82-23.19,9.95-.01,0-.03.02-.03.03-1.96,2.05-3.64,4.36-5,6.87-.04.06-.08.11-.11.17-.19.27-.38.54-.56.8-.37.52-.73,1.05-1.09,1.59-.44.64-.87,1.28-1.3,1.92-.56.84-1.12,1.69-1.67,2.55-.04.05-.07.11-.1.16-.56.86-1.12,1.73-1.66,2.6-.53.84-1.05,1.68-1.57,2.52-.04.06-.08.12-.11.18-.54.89-1.08,1.77-1.61,2.67-.01.02-.03.04-.04.06h-11.17c.41-.73.82-1.46,1.24-2.19.54-.93,1.07-1.86,1.62-2.78.42-.71.84-1.41,1.27-2.11.31-.52.63-1.05.96-1.56.37-.61.75-1.22,1.13-1.83.77-1.21,1.54-2.42,2.32-3.62.54-.84,1.1-1.67,1.65-2.49.64-.96,1.29-1.91,1.94-2.85.54-.77,1.07-1.54,1.61-2.31.54-.77,1.09-1.53,1.65-2.3.5-.7,1.02-1.4,1.54-2.1.06-.09.13-.19.2-.28,2.22-2.99,4.51-5.93,6.87-8.82.2-.26.41-.5.63-.76,5.71-2.48,11.65-4.22,17.29-5.06,2.51-.38,4.96-.57,7.3-.57,18.89,0,34.26,15.37,34.26,34.26Z"/>
      <path class="cls-1" d="m237.04,177.52c-4.56,1.53-9.41,2.35-14.41,2.35h-.12c-5.04,0-150.76-.13-193.54-.64-4.65-.06-8.07-.12-9.98-.19.38-1.32.78-2.64,1.19-3.96.46-1.5.94-3,1.44-4.49.06-.17.11-.35.17-.52.06-.17.11-.34.17-.52,1.81.05,5.31.1,10.13.15,41.65.39,182.28.62,190.52.6,4.43,0,8.71-.82,12.69-2.31.4,3.24.98,6.41,1.74,9.53Z"/>
      <path class="cls-1" d="m484.05,327.17c-.05.16-.11.32-.17.48h-.05c.06-.16.11-.33.17-.49.01,0,.03,0,.04,0Z"/>
      <path class="cls-1" d="m485.6,322.57c-.04.11-.08.24-.12.36l.07-.36h.05Z"/>
      <path class="cls-1" d="m20.17,175.09c.47-1.5.94-3,1.45-4.49-.5,1.49-.98,2.99-1.44,4.49h0Z"/>
      <path class="cls-1" d="m21.95,169.56h0c-.06.17-.11.34-.17.52.05-.17.11-.34.17-.52Z"/>
      <path class="cls-1" d="m268.52,137.45c-.1,1.79-.34,3.58-.7,5.36-2.67,13.18-10.89,24.15-21.89,30.65-2.8,1.65-5.78,3.02-8.89,4.06-.76-3.11-1.35-6.29-1.74-9.53,3.27-1.23,6.35-2.92,9.12-5,7.04-5.26,12.19-13.01,14.03-22.08.53-2.61.69-5.23.49-7.81-.13-1.81-.44-3.59-.92-5.32-.75-2.72-1.91-5.35-3.47-7.8-.08-.13-.17-.26-.26-.4-1.79-2.69-3.98-5.02-6.48-6.93-3.36-2.56-7.28-4.35-11.54-5.21-5.81-1.18-11.57.09-16.19,3.1-1.39.91-2.67,1.97-3.83,3.16-1.6,1.66-2.95,3.59-3.96,5.73,0,0,0,0,0,.01-.36.74-.67,1.51-.93,2.3,0,.02-.01.04-.02.06-.29.85-.52,1.72-.71,2.62-1.8,8.89,3.96,17.59,12.85,19.39,3.19.65,6.44.01,9.16-1.79,2.71-1.8,4.57-4.55,5.21-7.74l.11.03,9.27,1.88c-1.44,7.11-6.22,12.7-12.37,15.49-4.03,1.83-8.64,2.46-13.29,1.51-9.88-2-17.32-9.39-19.88-18.49-1.08-3.85-1.3-8-.45-12.18.29-1.46.69-2.87,1.17-4.24,0-.01,0-.02.01-.03.29-.82.61-1.61.97-2.4,0-.01,0-.02.01-.03,1.01-2.25,2.28-4.34,3.76-6.24.96-1.24,2.01-2.4,3.14-3.48,1.23-1.16,2.54-2.23,3.94-3.18,4.53-3.1,9.87-5.02,15.5-5.41,2.76-.2,5.58-.03,8.42.54.03,0,.06.01.1.02h0c5.58,1.15,10.73,3.48,15.15,6.8,2.55,1.92,4.86,4.17,6.88,6.72.68.86,1.34,1.76,1.95,2.69.32.48.63.96.91,1.45,1.54,2.57,2.77,5.27,3.65,8.07.91,2.83,1.47,5.76,1.67,8.72.11,1.63.13,3.27.03,4.91Z"/>
      <path class="cls-1" d="m496.93,179.42c-2.74.04-6.14.09-9.99.13-26.52.26-74.55.33-75.81.33h-.02c-4.01,0-7.9-.71-11.53-2.01-3.14-1.12-6.08-2.69-8.75-4.63-6.86-4.99-11.89-12.44-13.67-21.2-2-9.91,1.37-19.68,8.1-26.27,2.29-2.25,4.97-4.12,7.96-5.51,1-.47,2.03-.88,3.09-1.23,1.07-.35,2.17-.64,3.3-.87,3.36-.68,6.71-.62,9.86.07h0c1.53.34,3.02.83,4.44,1.45,4.01,1.74,7.5,4.56,10.04,8.17,1.86,2.63,3.22,5.67,3.89,9.02,1.07,5.27.02,10.64-2.95,15.12-2.97,4.48-7.5,7.54-12.77,8.6-3.53.71-7.03.28-10.1-1.05-4.97-2.13-8.84-6.58-10-12.27l9.12-1.85.26-.05c.82,4.05,4.78,6.67,8.82,5.84,2.76-.56,5.14-2.16,6.7-4.51,1.56-2.35,2.11-5.16,1.54-7.93-.9-4.43-3.76-7.98-7.5-9.91,0,0,0,0-.01,0-1.38-.71-2.89-1.21-4.46-1.45h0c-1.61-.24-3.29-.22-4.98.13-1.6.33-3.1.84-4.5,1.52-3.23,1.55-5.9,3.97-7.78,6.89-2.62,4.06-3.73,9.1-2.69,14.19.91,4.45,2.96,8.44,5.83,11.66,2.48,2.8,5.56,5.03,9.01,6.5,3.02,1.3,6.32,2,9.75,2.01,2.62.02,50.91-.11,72.67-.36h.01c5.26-.06,8.98-.12,10.11-.19h0c.35,1.05.69,2.09,1.02,3.13.24.73.47,1.47.7,2.21.45,1.44.88,2.88,1.3,4.33Z"/>
      <path class="cls-1" d="m494.1,169.74c-.07,0-.13.01-.19.02h0c.07-.01.13-.01.19-.02Z"/>
      <path class="cls-1" d="m237.97,134.32c-1.62,5.58-2.68,11.38-3.1,17.37,6.14-2.79,10.92-8.38,12.37-15.49l-9.27-1.88Zm163.19,11.09l-9.12,1.85c1.15,5.69,5.03,10.14,10,12.27.01-.63.02-1.25.02-1.88,0-4.16-.31-8.24-.89-12.24Zm-4.14-16.36c-1.1-3.02-2.37-5.95-3.79-8.79-1.6-3.17-3.38-6.23-5.35-9.16-.83-1.24-1.69-2.45-2.58-3.64-2.3-3.06-4.81-5.97-7.5-8.68-1.05-1.06-2.12-2.09-3.23-3.09-2.83-2.57-5.84-4.95-9-7.12-1.23-.84-2.48-1.65-3.75-2.42-3.26-1.99-6.66-3.76-10.19-5.3-1.37-.59-2.74-1.15-4.14-1.67-3.57-1.33-7.25-2.42-11.03-3.25-1.45-.32-2.91-.61-4.38-.85-3.74-.62-7.55-.99-11.44-1.09-.76-.02-1.52-.03-2.28-.03s-1.46,0-2.19.03c-3.89.1-7.71.47-11.45,1.08-1.47.24-2.94.52-4.38.84-3.78.83-7.47,1.92-11.03,3.25-1.4.52-2.78,1.07-4.14,1.67-3.54,1.53-6.94,3.3-10.21,5.29-1.27.77-2.53,1.58-3.75,2.42-3.17,2.17-6.18,4.55-9.02,7.11-1.1,1-2.18,2.03-3.23,3.09-1.94,1.95-3.78,4.01-5.53,6.14-.68.83-1.34,1.68-1.98,2.54-.89,1.19-1.76,2.4-2.59,3.64-.35.52-.7,1.05-1.05,1.59,2.5,1.91,4.7,4.24,6.48,6.93.09.13.17.26.26.4.67-1.15,1.38-2.27,2.12-3.38.82-1.24,1.68-2.45,2.59-3.64.34-.46.7-.91,1.06-1.36,1.64-2.07,3.39-4.06,5.26-5.95,1.04-1.06,2.11-2.09,3.22-3.09,2.39-2.15,4.93-4.15,7.59-5.99,1.23-.85,2.48-1.65,3.75-2.42,2.75-1.67,5.62-3.15,8.59-4.45,1.36-.6,2.74-1.15,4.15-1.67,3.01-1.1,6.11-2.02,9.28-2.72,1.45-.33,2.91-.61,4.38-.84,3.15-.51,6.36-.82,9.63-.91.73-.03,1.45-.04,2.19-.04s1.53.01,2.28.04c3.27.1,6.48.41,9.63.93,1.47.23,2.94.52,4.38.84,3.17.71,6.27,1.63,9.27,2.74,1.4.52,2.78,1.07,4.14,1.68,2.97,1.3,5.83,2.79,8.58,4.45,1.28.77,2.52,1.58,3.75,2.43,2.65,1.83,5.19,3.83,7.57,5.99,1.11,1,2.19,2.03,3.22,3.09,2.27,2.29,4.37,4.73,6.31,7.3.9,1.19,1.76,2.4,2.58,3.64,1.94,2.9,3.68,5.95,5.19,9.12,1.56,3.27,2.9,6.67,3.97,10.18,1.88-2.92,4.56-5.34,7.78-6.89Zm-3.79-8.79c-1.6-3.17-3.38-6.23-5.35-9.16l-7.81,5.54c1.94,2.9,3.68,5.95,5.19,9.12,1.56,3.27,2.9,6.67,3.97,10.18,1.88-2.92,4.56-5.34,7.78-6.89-1.1-3.02-2.37-5.95-3.79-8.79Zm-.86,41.53c-.22,3.91-.73,7.73-1.54,11.45,2.67,1.94,5.62,3.5,8.75,4.63.78-3.13,1.38-6.32,1.79-9.57-3.45-1.47-6.53-3.7-9.01-6.5Zm-147.95,1.2c-2.78,2.08-5.85,3.77-9.12,5,.4,3.24.98,6.41,1.74,9.53,3.11-1.04,6.09-2.41,8.89-4.06-.75-3.41-1.26-6.9-1.51-10.47Z"/>
      <path class="cls-1" d="m147.77,77.72c-.21.11-.41.22-.63.34-1.36.75-2.67,1.58-3.94,2.49l-8.91-4.05-.9-.41-27.04-12.28-9.79-4.44c1.26-1.07,2.52-2.14,3.8-3.18l9.89,4.49,27.07,12.3.84.38h0l9.6,4.36Z"/>
      <path class="cls-1" d="m214.44,107.99l5.63,2.56c-1.39.91-2.67,1.97-3.83,3.16l-2.23-1.01-6.84-3.11-2.34-1.06c.03-.48.04-.97.04-1.45,0-1.19-.06-2.35-.18-3.51l5.62,2.55,4.12,1.87Z"/>
      <path class="cls-1" d="m266.83,123.81l-10.16-7.21-7.81-5.54-19.1-13.54-24.42-17.32h0l-21.44-15.21h-.01s-38.47-27.29-38.47-27.29l-8.78-6.22c1.45-.81,2.9-1.61,4.37-2.38l8.86,6.28,88.41,62.7h0l13.17,9.34,7.81,5.54,3.92,2.78c1.54,2.57,2.77,5.27,3.65,8.07Z"/>
      <path class="cls-1" d="m268.5,132.54c.11,1.63.13,3.27.03,4.91l-9.59-4.35c-.13-1.81-.44-3.59-.92-5.32l10.48,4.76Z"/>
      <path class="cls-1" d="m262.18,95.66l6.62,6.92c-1.11,1-2.18,2.03-3.22,3.09l-6.62-6.92L184.62,21.05l-7.36-7.69c1.56-.54,3.13-1.06,4.7-1.56l7.43,7.77,72.8,76.09Z"/>
      <path class="cls-1" d="m274.95,86.12l5.19,8.05c-1.28.77-2.53,1.58-3.75,2.42l-5.19-8.05L222.02,12.26l-5.68-8.81c1.6-.27,3.21-.53,4.82-.76l5.73,8.89,48.05,74.54Z"/>
      <path class="cls-1" d="m289.3,79.16l3.57,8.88c-1.4.52-2.79,1.07-4.15,1.67l-3.57-8.89-28.61-71.25L252.73.06c1.6-.04,3.19-.06,4.79-.06l3.85,9.6,27.93,69.56Z"/>
      <path class="cls-1" d="m304.72,75.07l1.82,9.41c-1.47.24-2.94.52-4.38.84l-1.82-9.41-12.47-64.47-1.91-9.89c1.56.18,3.11.36,4.66.57l1.92,9.95,12.19,63Z"/>
      <path class="cls-1" d="m316.16,83.57V16.74s-.01-9.9-.01-9.9c1.49.35,2.99.73,4.47,1.12v66.03s.01,9.58.01,9.58c-.75-.03-1.51-.04-2.28-.04s-1.46.01-2.19.04Z"/>
      <path class="cls-1" d="m347.87,16.76l-1.86,9.63-9.56,49.54-1.81,9.41c-1.44-.33-2.91-.61-4.38-.84l1.81-9.41,9.71-50.33,1.85-9.59c1.42.52,2.83,1.05,4.24,1.6Z"/>
      <path class="cls-1" d="m369.18,37.07l-17.56,43.79-3.57,8.9c-1.36-.61-2.74-1.16-4.14-1.68l3.57-8.89,17.72-44.17,3.61-9c1.34.66,2.67,1.34,3.99,2.04l-3.61,9.02h0Z"/>
      <path class="cls-1" d="m395.8,41.65l-5.25,8.15-24.98,38.78-5.19,8.05c-1.23-.85-2.47-1.66-3.75-2.43l5.18-8.05,24.99-38.8,5.25-8.15c1.25.8,2.5,1.62,3.74,2.45Z"/>
      <path class="cls-1" d="m377.8,98.79l-6.62,6.92c-1.03-1.06-2.11-2.09-3.22-3.09l6.62-6.92,32.4-33.89,6.73-7.03c1.16.93,2.32,1.88,3.46,2.85l-6.71,7.02-32.65,34.14Z"/>
      <path class="cls-1" d="m392.14,102.62l14.34-10.17c-2.14,2.41-3.69,5.35-4.41,8.6h0l-9.88,7.01-4.29,3.04-7.81,5.54c-.82-1.24-1.68-2.45-2.58-3.64l7.81-5.55,6.84-4.85Z"/>
      <path class="cls-1" d="m437.1,76.19l-3.52,2.5-4.48,3.18-5.84,4.15h0c-.75-.08-1.51-.11-2.28-.11-2.58,0-5.05.51-7.31,1.44l12.25-8.69,2.22-1.58,5.79-4.12c1.07,1.07,2.12,2.14,3.17,3.23Z"/>
      <path class="cls-1" d="m21.95,169.56h0c-.06.17-.11.34-.17.52.05-.17.11-.34.17-.52Z"/>
      <path class="cls-1" d="m66.81,105.01c-.1.12-.19.25-.29.37-.27.37-.56.74-.83,1.12-1.01,1.37-2.02,2.74-3,4.13-.3.41-.59.84-.88,1.25,1.36-2.51,3.04-4.81,5-6.87Z"/>
      <path class="cls-1" d="m184.17,11.1v10.09c-.6.2-1.21.4-1.81.6-.75.25-1.49.5-2.24.76-.53.18-1.07.36-1.6.56-1.7.59-3.39,1.21-5.07,1.85-.6.22-1.2.45-1.79.69-2.34.9-4.66,1.84-6.96,2.82-.71.3-1.43.61-2.14.93-.72.31-1.44.63-2.15.95-2.14.96-4.27,1.95-6.37,2.97-.54.26-1.08.52-1.62.79-1.61.79-3.22,1.61-4.8,2.44-.41.22-.83.43-1.24.66-1.14.61-2.28,1.22-3.42,1.85-.73.4-1.45.8-2.17,1.21-.67.37-1.34.75-2,1.14-.23.13-.46.26-.68.4-.61.35-1.21.7-1.81,1.06-.05.03-.1.06-.15.1-.66.39-1.32.78-1.98,1.19-4.31,2.61-8.52,5.35-12.65,8.23-.61.42-1.21.84-1.81,1.28-.58.41-1.17.83-1.74,1.24-6.31,4.56-12.39,9.42-18.2,14.57-.58.51-1.15,1.02-1.73,1.54-.57.52-1.14,1.03-1.71,1.56-.57.52-1.14,1.04-1.7,1.57-.56.53-1.12,1.05-1.68,1.59-.56.53-1.11,1.07-1.67,1.6-1.08,1.05-2.16,2.12-3.23,3.2-.08.08-.15.15-.22.23-.48.49-.97.98-1.45,1.48-.89.91-1.77,1.83-2.63,2.75-.34.36-.68.71-1.01,1.08-.13.14-.26.29-.4.43-.72.78-1.44,1.56-2.14,2.34-.05.05-.1.1-.15.16-.66.73-1.31,1.47-1.96,2.21-.49.56-.98,1.12-1.46,1.68-.34.4-.69.8-1.03,1.21-1.04,1.22-2.06,2.44-3.07,3.69-.39.47-.77.94-1.15,1.42-1.54,1.91-3.06,3.85-4.53,5.82-.01,0-.03.02-.03.03-1.96,2.05-3.64,4.36-5,6.87-.04.06-.08.11-.11.17-.19.27-.38.54-.56.8-.37.53-.73,1.05-1.09,1.59-.44.64-.87,1.28-1.3,1.92-.56.84-1.12,1.69-1.67,2.55-.04.05-.07.11-.1.16-.56.86-1.12,1.73-1.66,2.6-.53.84-1.05,1.68-1.57,2.52-.04.06-.08.12-.11.18-.54.89-1.08,1.77-1.61,2.67-.01.02-.03.04-.04.06h-11.17c.41-.73.82-1.46,1.24-2.19.54-.93,1.07-1.86,1.62-2.78.42-.71.84-1.41,1.27-2.11.31-.52.63-1.05.96-1.56.37-.61.75-1.22,1.13-1.83.77-1.21,1.54-2.42,2.32-3.62.54-.84,1.1-1.67,1.65-2.49.64-.96,1.29-1.91,1.94-2.85.54-.77,1.07-1.54,1.61-2.31.54-.77,1.09-1.53,1.65-2.3.5-.7,1.02-1.4,1.54-2.1.06-.09.13-.19.2-.28,2.22-2.99,4.51-5.93,6.87-8.82.2-.26.41-.5.63-.76.39-.47.78-.95,1.17-1.42.61-.73,1.21-1.45,1.82-2.16,1.23-1.44,2.48-2.86,3.73-4.28.63-.7,1.27-1.4,1.91-2.11,1.28-1.4,2.57-2.79,3.89-4.16.66-.68,1.31-1.37,1.98-2.05.34-.34.67-.68,1-1.01s.67-.68,1.01-1.01c.71-.71,1.43-1.42,2.15-2.12.84-.82,1.68-1.63,2.53-2.43.41-.4.83-.79,1.25-1.18.33-.31.66-.63,1-.94,1.3-1.21,2.62-2.4,3.94-3.57.62-.55,1.24-1.1,1.86-1.64.57-.5,1.14-.99,1.72-1.48.47-.4.93-.8,1.4-1.2.5-.42,1.01-.84,1.52-1.26.34-.29.69-.58,1.04-.86.71-.58,1.42-1.15,2.13-1.74,2.15-1.72,4.33-3.41,6.53-5.05.54-.4,1.07-.8,1.61-1.19.44-.33.88-.66,1.33-.98.66-.48,1.33-.96,2-1.44.64-.46,1.28-.91,1.93-1.35.56-.4,1.12-.78,1.69-1.17.63-.43,1.26-.87,1.9-1.29.54-.36,1.08-.73,1.63-1.08,1.07-.71,2.14-1.41,3.23-2.09.44-.29.89-.57,1.33-.84.43-.28.87-.55,1.31-.82,3.22-2,6.48-3.92,9.79-5.76.87-.49,1.75-.97,2.62-1.44,1.07-.58,2.14-1.15,3.22-1.71.63-.33,1.24-.65,1.87-.97.13-.07.27-.14.4-.2.61-.31,1.22-.62,1.83-.93.42-.21.85-.43,1.28-.63.77-.38,1.54-.75,2.32-1.13.63-.3,1.25-.59,1.88-.89,1.24-.59,2.49-1.15,3.75-1.72,1.69-.76,3.39-1.5,5.1-2.23h0c.95-.4,1.9-.8,2.85-1.19s1.91-.77,2.87-1.15c.11-.04.21-.08.32-.13.85-.33,1.7-.66,2.55-.98.84-.32,1.68-.63,2.51-.94.34-.13.68-.25,1.02-.38.75-.27,1.5-.54,2.25-.8,1.05-.37,2.1-.73,3.15-1.08.61-.21,1.22-.41,1.82-.61.52-.17,1.03-.34,1.56-.5.74-.24,1.47-.47,2.21-.7Z"/>
      <path class="cls-1" d="m465.36,111.34h-11.75c-.29-.43-.6-.86-.91-1.29-.52-.74-1.05-1.47-1.59-2.2-.33-.46-.68-.92-1.01-1.38-.59-.8-1.19-1.61-1.81-2.4-.6-.8-1.21-1.59-1.83-2.37-.13-.17-.26-.34-.4-.51-.26-.33-.53-.67-.8-1-.5-.65-1.03-1.3-1.55-1.95-.26-.32-.52-.64-.78-.96-.2-.24-.4-.48-.61-.72h0c-.67-.83-1.35-1.64-2.04-2.45-.02-.03-.04-.05-.06-.07-.49-.59-.99-1.17-1.5-1.74-.04-.05-.1-.11-.14-.16,0,0,0,0,0,0-.36-.42-.73-.84-1.1-1.26-3.71-4.22-7.56-8.29-11.56-12.22-.38-.39-.77-.77-1.16-1.14-.39-.38-.78-.77-1.17-1.14-.15-.14-.31-.29-.46-.43-.63-.6-1.26-1.19-1.89-1.79-.32-.31-.63-.6-.95-.89-.5-.46-1-.92-1.49-1.36-.54-.51-1.09-1-1.64-1.48,0-.02-.01-.03-.02-.02-.06-.06-.11-.11-.17-.15-.82-.75-1.65-1.47-2.49-2.19-.36-.31-.71-.63-1.08-.93-.45-.38-.89-.77-1.34-1.14-.23-.2-.46-.4-.69-.58-.84-.72-1.68-1.42-2.53-2.11-.62-.51-1.24-1.01-1.86-1.5-.62-.51-1.24-1-1.87-1.48-1.88-1.47-3.77-2.92-5.69-4.32-.86-.64-1.72-1.26-2.58-1.87-.7-.5-1.39-.99-2.09-1.48-.35-.25-.71-.5-1.07-.74-4.56-3.16-9.23-6.16-14.02-9-.35-.21-.7-.41-1.05-.61-.45-.27-.89-.53-1.34-.78-.45-.26-.9-.52-1.35-.77-1.11-.63-2.23-1.26-3.35-1.87-.37-.2-.74-.4-1.11-.6-.37-.21-.74-.41-1.12-.6-.38-.21-.76-.41-1.14-.61h0c-.66-.35-1.31-.7-1.98-1.04-.66-.34-1.33-.69-2-1.01-.66-.33-1.31-.66-1.98-.98-.66-.33-1.33-.66-1.99-.97-.59-.29-1.19-.57-1.78-.84-2.58-1.23-5.18-2.39-7.81-3.5-.24-.11-.48-.21-.73-.31-.01,0-.03-.01-.04-.02-.01,0-.03-.01-.04-.02-.21-.09-.43-.18-.64-.26-.47-.2-.95-.4-1.42-.59-1.21-.51-2.42-1-3.64-1.47-.41-.17-.82-.33-1.24-.48-2.27-.89-4.56-1.73-6.87-2.54-1.79-.63-3.58-1.23-5.39-1.83v-10.09c.11.03.21.06.32.1.04,0,.08.03.13.04.52.16,1.03.32,1.55.49.04,0,.08.02.12.04.43.13.87.27,1.3.42.24.07.47.15.7.23.47.15.94.31,1.42.47.17.06.34.11.52.18,1.56.52,3.12,1.07,4.68,1.63.42.15.84.31,1.26.46.16.06.32.12.48.18,1.15.43,2.28.86,3.43,1.3.11.04.22.08.33.13.57.22,1.15.45,1.73.68.57.23,1.15.46,1.73.7.57.23,1.14.47,1.72.7.57.24,1.15.48,1.72.72.65.27,1.3.56,1.95.84.54.23,1.07.47,1.6.7,1.43.63,2.85,1.26,4.26,1.92.34.17.68.32,1.02.48.59.27,1.17.55,1.75.83.47.22.94.45,1.42.68.19.08.36.17.55.27.5.24,1,.49,1.5.74.67.33,1.33.67,2,1.01.66.34,1.33.68,1.99,1.03.81.42,1.61.84,2.41,1.27.72.38,1.44.77,2.16,1.17.18.09.36.19.54.29.64.35,1.27.7,1.9,1.06.07.03.14.07.2.11.31.17.62.34.93.52.73.41,1.44.82,2.16,1.25.58.33,1.15.67,1.74,1.01.13.08.26.15.4.24.71.42,1.42.85,2.12,1.28.71.43,1.42.86,2.11,1.3.76.47,1.51.94,2.27,1.43.75.48,1.51.96,2.25,1.45.61.4,1.23.8,1.83,1.21.77.51,1.54,1.03,2.3,1.55.77.52,1.52,1.05,2.28,1.58.72.5,1.44,1.01,2.16,1.53.17.11.33.23.49.35.62.45,1.24.9,1.86,1.35.75.55,1.49,1.1,2.23,1.66.74.56,1.47,1.12,2.21,1.68,1.39,1.07,2.77,2.16,4.13,3.25.08.06.16.12.24.19.45.36.91.73,1.36,1.1.38.31.76.62,1.14.94.33.26.64.53.96.8.68.57,1.37,1.14,2.04,1.72.05.04.1.08.15.13.7.6,1.4,1.21,2.09,1.81.71.62,1.42,1.24,2.12,1.87.7.62,1.4,1.24,2.09,1.9,2.79,2.53,5.52,5.14,8.21,7.83.55.55,1.09,1.1,1.63,1.65.54.55,1.07,1.1,1.61,1.66.54.56,1.08,1.12,1.61,1.68.46.48.91.96,1.36,1.45,1.02,1.09,2.03,2.19,3.03,3.31,1.44,1.61,2.87,3.24,4.27,4.88,1.07,1.25,2.14,2.51,3.18,3.8.73.9,1.47,1.8,2.19,2.71.73.91,1.44,1.82,2.15,2.74.15.19.29.37.43.56.15.19.29.38.43.57,1.16,1.51,2.3,3.02,3.41,4.56.56.77,1.11,1.54,1.66,2.31.28.38.56.77.82,1.16.27.39.54.78.82,1.17.52.75,1.03,1.5,1.54,2.25.1.14.2.28.29.43.36.53.71,1.05,1.06,1.58Z"/>
      <path class="cls-1" d="m487.01,318.08h-.63c-28.26-.05-67.59-.14-100.72-.26-13.78,1.97-28.73,4.93-44.23,9.35-23.21,6.62-47.63,16.47-71.15,31.04-42.78,26.5-81.99,39.01-116.55,37.18-34.64-1.83-53.48-17.89-59.99-24.71-8.75-9.19-11.78-18.44-8.52-26.06,2.87-6.71,10.57-11.42,18.73-11.45h.2c14.51,0,22.89,5,24.92,14.85.64,3.12-1.41,7.03-4.87,9.28-4.66,3.04-10.57,2.48-16.21-1.53l-5.54,7.8c8.88,6.32,18.97,6.97,26.98,1.74,6.85-4.46,10.47-12.19,9.02-19.23-1.73-8.41-8.49-22.49-34.3-22.49h-.22c-12.06.04-23.11,6.97-27.5,17.26-2.81,6.58-5.19,20.05,10.4,36.42,15.4,16.17,39.61,26.25,66.41,27.67,2.37.13,4.75.19,7.17.19,34.72,0,73.34-13.03,114.93-38.8,37.58-23.28,77.66-34.12,110.84-38.94,32.35.13,69.95.2,97.67.24.06-.16.11-.33.17-.49.01,0,.03,0,.04,0-.05.16-.11.32-.17.48-7.94,22.66-19.19,43.78-33.2,62.76-.93,1.26-1.88,2.52-2.83,3.76-1.02,1.33-2.05,2.65-3.1,3.96-.47.61-.96,1.21-1.45,1.8-.97,1.2-1.96,2.39-2.96,3.56-.5.59-1,1.17-1.51,1.75-.5.58-1.01,1.17-1.52,1.74-.5.58-1.01,1.15-1.54,1.72-.51.57-1.03,1.15-1.56,1.72-.45.49-.89.97-1.35,1.46-.6.64-1.2,1.28-1.81,1.92-.52.56-1.05,1.1-1.59,1.65-.54.56-1.08,1.11-1.63,1.67-.73.74-1.47,1.48-2.22,2.21-.18.18-.36.36-.55.54-.72.71-1.45,1.42-2.18,2.11-.03.03-.06.06-.1.1-.86.82-1.71,1.62-2.58,2.42-.87.8-1.74,1.6-2.62,2.38-.77.69-1.54,1.37-2.32,2.05-24.09,21.08-52.42,37.4-83.53,47.52v10.02c7.82-2.42,15.52-5.25,23.12-8.45,21.68-9.16,41.73-21.22,59.88-35.98.59-.48,1.17-.96,1.75-1.44.86-.71,1.72-1.43,2.57-2.16,1.42-1.21,2.84-2.44,4.24-3.69.7-.63,1.4-1.26,2.09-1.89,1.39-1.26,2.77-2.55,4.13-3.85.76-.73,1.51-1.46,2.26-2.19.43-.42.86-.84,1.28-1.26.29-.29.58-.57.87-.87,1.4-1.4,2.78-2.81,4.14-4.23.03-.03.06-.06.09-.1.34-.36.69-.73,1.03-1.1.34-.36.69-.73,1.03-1.1.84-.89,1.66-1.79,2.48-2.7.06-.06.11-.12.17-.19.71-.79,1.43-1.59,2.13-2.39.14-.15.27-.31.41-.47.66-.75,1.31-1.5,1.95-2.26.91-1.06,1.81-2.13,2.7-3.2.63-.77,1.26-1.54,1.9-2.32.63-.78,1.24-1.56,1.86-2.35,1.27-1.62,2.52-3.25,3.75-4.9,0,0,.01,0,.01-.01.75-1,1.48-2,2.21-3.01,10.9-15.1,20.06-31.37,27.38-48.67,2.51-5.94,4.78-11.95,6.81-18.02h.05c1.07-3.17,2.06-6.36,2.99-9.57-3.14,0-6.49-.01-10.02-.02Zm-1.53,4.85l.07-.36h.05c-.04.11-.08.24-.12.36Z"/>
      <path class="cls-1" d="m473.58,373.1c-1.17,2.03-2.37,4.05-3.6,6.04h-.03s-9.95.64-9.95.64h0c-.08-.02-.65-.15-1.68-.35h-.02c-6.69-1.32-32.38-5.84-65.68-4.87-35.5,1.05-87.22,8.75-132,39.51-10.98,7.54-21.28,14-30.9,19.53h0c-8.03,4.61-15.59,8.58-22.68,11.98h0c-22.65,10.87-40.54,16.03-53.76,18.33h0s-.07.01-.11.01c-7.2,1.25-13.02,1.65-17.45,1.67h-.13c-3.18-1.79-6.31-3.65-9.4-5.58l.02-.06,1.17-4.57s3.65.84,10.82.56c.04,0,.08,0,.11,0t0,0c5.07-.2,11.91-.94,20.5-2.92,14.57-3.35,36.53-10.82,65.51-27.35t0,0c3.59-2.05,7.29-4.24,11.1-6.58,6.3-3.87,12.9-8.15,19.79-12.88,20.69-14.21,44.46-24.93,70.66-31.86,20.88-5.53,43.35-8.66,66.76-9.34,39.85-1.14,68.31,5.19,69.51,5.46l1.56.36h.03s9.86,2.29,9.86,2.29h.02Z"/>
      <path class="cls-1" d="m330.19,459.12c-9.2,0-18.2-3.39-23.35-9.6-4.33-5.23-9.47-16.76,4.78-35.16,17.93-23.13,47.91-33.6,86.69-30.29,28.71,2.46,51.9,11.44,52.87,11.82l-3.49,8.91s0,0,0,0h0c-.33-.13-23.11-8.92-50.41-11.22-35.79-3.02-62.06,5.95-78.09,26.63-4.36,5.63-10.82,16.13-4.97,23.19,5.23,6.32,18.51,8.05,27.32,3.56,3.66-1.87,5.89-7.15,4.86-11.54-1.17-5-5.86-6.1-9.58-6.14l.1-9.57c9.81.1,16.84,5.16,18.8,13.52,2.06,8.78-2.17,18.35-9.83,22.25-4.81,2.45-10.28,3.62-15.69,3.62Z"/>
      <path class="cls-1" d="m131.86,424.55c-4.96,0-9.8-2.16-12.29-7.24-1.55-3.18-1.49-6.53.16-9.44,2.61-4.58,9.18-7.95,20.08-10.29,7.28-1.56,13.89-2.11,14.16-2.14l.78,9.54c-.07,0-6.91.58-13.91,2.17-11.48,2.61-12.82,5.51-12.83,5.54,0,0,.04.16.16.42.21.43.77,1.58,2.94,1.82,2.58.28,4.98-.92,5.44-1.49,5.36-.65,1.11-.11,3.63-.44l5.33-.65c1.35,4.32-1.45,8.71-6.98,10.91-2.1.84-4.4,1.29-6.68,1.29Z"/>
      <path class="cls-1" d="m218.75,463.6c-2.26.17-3.96-.59-5.21-2.3-4.06-5.57,5.36-17.69,16.17-27.69h0c3.38-3.13,6.9-6.05,10.18-8.5l-2.86-3.84-1.63-2.19c-3.81,2.34-7.5,4.53-11.1,6.58t0,0c-2.69,2.43-5.63,5.27-8.45,8.34-3.77,4.1-6.71,7.97-8.82,11.59h0c-4.96,8.49-5.38,15.65-1.21,21.36,2.97,4.06,7.32,6.26,12.35,6.25.42,0,.85-.01,1.28-.04,6.58-.47,13.21-4.63,16.12-10.12l-8.45-4.49c-1.18,2.23-4.71,4.8-8.35,5.06Z"/>
      <path class="cls-1" d="m66.62,392.4c-.09-.13-.18-.26-.27-.38.08.11.16.21.24.31.01.02.03.04.04.06Z"/>
      <path class="cls-1" d="m184.12,476.46v10.01c-7.82-2.42-15.52-5.25-23.12-8.45-29.64-12.54-56.25-30.48-79.1-53.33-11.24-11.24-21.31-23.41-30.13-36.39-1.26-1.86-2.49-3.73-3.7-5.62-.64-1.01-1.28-2.02-1.91-3.04-.36-.58-.72-1.16-1.07-1.75-.36-.58-.71-1.17-1.06-1.75-.7-1.17-1.39-2.35-2.07-3.54-.06-.11-.13-.23-.2-.35-.45-.79-.9-1.58-1.34-2.38-.48-.87-.97-1.74-1.44-2.62-1.88-3.48-3.69-7.01-5.4-10.58-.43-.9-.86-1.81-1.28-2.71-.01,0-.01-.01-.01-.02-.01-.03-.03-.05-.04-.08-.27-.57-.53-1.15-.8-1.73-.05-.11-.1-.23-.15-.34-.3-.66-.6-1.32-.89-1.98-.6-1.36-1.19-2.72-1.77-4.1-2.58-6.11-4.91-12.3-6.98-18.55h-.03c-1.06-3.18-2.05-6.37-2.97-9.59,2.95.03,6.32.05,10.04.07,9.91.06,22.29.12,35.9.18v9.59c-12.07-.05-23.26-.11-32.77-.17h-.02c.89,2.55,1.81,5.07,2.79,7.57.38,1.01.78,2.01,1.19,3.01.4,1,.8,2,1.23,2.99.41,1,.83,1.98,1.26,2.97.43.99.86,1.97,1.3,2.95.38.84.76,1.67,1.14,2.5.5,1.07,1,2.14,1.52,3.2.36.75.72,1.49,1.09,2.23.08.17.17.34.26.52.41.84.84,1.67,1.26,2.49.28.56.57,1.12.86,1.67.71,1.38,1.45,2.74,2.19,4.11.45.82.91,1.63,1.36,2.44.41.72.82,1.44,1.23,2.16.15.26.31.52.46.78.85,1.48,1.72,2.94,2.61,4.39.47.77.94,1.54,1.44,2.3.46.75.93,1.5,1.42,2.24.47.75.94,1.49,1.44,2.23.45.68.89,1.34,1.34,2.01.45.67.91,1.33,1.36,2l.25.36s.04.07.07.1c.48.69.96,1.38,1.44,2.06.15.22.31.44.47.66.29.42.59.84.91,1.26.13.18.25.35.38.52.22.3.43.61.66.91.53.73,1.07,1.46,1.62,2.18.09.12.19.25.27.38.03.04.06.07.08.11.37.5.75.99,1.13,1.48.39.52.78,1.03,1.19,1.55.66.85,1.32,1.69,2,2.53.48.61.97,1.21,1.47,1.81.15.19.31.38.47.57.59.73,1.2,1.47,1.81,2.19.09.11.18.21.27.32.68.8,1.35,1.6,2.04,2.39.02.03.04.04.06.07.64.73,1.28,1.47,1.93,2.2.14.17.29.33.45.5.41.48.84.95,1.28,1.42.44.49.89.98,1.33,1.46.25.27.5.54.75.81.51.56,1.03,1.1,1.56,1.65.68.73,1.37,1.45,2.09,2.17.36.38.73.77,1.11,1.14.5.51,1.01,1.02,1.53,1.53.7.7,1.4,1.39,2.11,2.07.39.38.78.77,1.17,1.14.49.47.98.94,1.48,1.4.36.34.73.68,1.09,1.02.41.39.82.77,1.24,1.15.38.36.76.7,1.14,1.05.47.43.94.86,1.42,1.28.36.32.71.64,1.08.96.47.42.94.82,1.42,1.23.4.35.79.69,1.19,1.03.56.49,1.13.96,1.7,1.44.22.19.44.38.66.56.66.55,1.31,1.09,1.97,1.63.2.17.4.33.61.49.83.68,1.67,1.34,2.51,2,.83.66,1.67,1.31,2.51,1.96.08.07.17.13.25.19.88.68,1.76,1.34,2.65,2,.73.56,1.47,1.1,2.21,1.63.24.17.48.35.72.52.52.38,1.05.75,1.57,1.12,3.2,2.28,6.46,4.47,9.78,6.58,1.84,1.18,3.71,2.33,5.58,3.45.98.59,1.96,1.17,2.95,1.74,4.88,2.83,9.88,5.5,14.97,7.99,9.96,4.88,20.31,9.07,30.98,12.54Z"/>
      <path class="cls-1" d="m30.4,349.79c-.63-1.39-1.23-2.79-1.83-4.19-2.57-6.08-4.89-12.23-6.96-18.45h.03c2.07,6.25,4.4,12.44,6.98,18.55.58,1.37,1.17,2.74,1.77,4.1Z"/>
      <path class="cls-1" d="m53.56,373.19c-.89-1.45-1.76-2.91-2.61-4.39.86,1.47,1.72,2.93,2.61,4.39Z"/>
      <path class="cls-1" d="m54.99,375.49c-.49-.77-.96-1.53-1.44-2.3.01.02.03.03.04.05.46.75.93,1.51,1.4,2.25Z"/>
      <path class="cls-1" d="m65.11,390.36c-.13-.17-.26-.34-.39-.52-.22-.3-.44-.61-.66-.91.34.48.7.96,1.05,1.43Z"/>
      <path class="cls-1" d="m184.12,476.38v.08c-10.67-3.47-21.02-7.67-30.98-12.54-5.09-2.49-10.09-5.16-14.97-7.99-.99-.57-1.97-1.15-2.95-1.74-1.88-1.12-3.74-2.27-5.58-3.45-3.32-2.11-6.58-4.3-9.78-6.58-.52-.37-1.05-.75-1.57-1.12-.24-.17-.48-.34-.72-.52-.74-.54-1.48-1.08-2.21-1.63-.89-.66-1.77-1.32-2.65-2-.08-.06-.17-.12-.25-.19-.84-.64-1.68-1.3-2.51-1.96-.84-.66-1.68-1.33-2.51-2-.2-.16-.4-.33-.61-.49-.66-.54-1.31-1.08-1.97-1.63-.22-.18-.44-.36-.66-.56-.57-.47-1.14-.95-1.7-1.44-.4-.34-.79-.68-1.19-1.03-.47-.41-.94-.82-1.42-1.23-.36-.32-.72-.64-1.08-.96-.48-.42-.95-.85-1.42-1.28-.38-.34-.77-.7-1.14-1.05-.42-.38-.84-.76-1.24-1.15-.36-.34-.73-.68-1.09-1.02-.5-.47-.99-.93-1.48-1.4-.4-.38-.78-.76-1.17-1.14-.71-.68-1.41-1.37-2.11-2.07-.52-.51-1.03-1.02-1.53-1.53-.38-.38-.75-.76-1.11-1.14-.71-.72-1.4-1.44-2.09-2.17-.53-.55-1.05-1.09-1.56-1.65-.25-.27-.5-.54-.75-.81-.45-.49-.89-.97-1.33-1.46-.43-.47-.86-.94-1.28-1.42-.16-.17-.31-.33-.45-.5-.65-.73-1.3-1.46-1.93-2.2-.02-.03-.04-.04-.06-.07-.69-.79-1.37-1.59-2.04-2.39-.09-.11-.18-.21-.27-.32-.61-.73-1.21-1.46-1.81-2.19-.16-.19-.32-.38-.47-.57-.5-.6-.98-1.21-1.47-1.81-.68-.84-1.34-1.68-2-2.53-.4-.51-.8-1.03-1.19-1.55-.38-.49-.76-.98-1.13-1.48-.03-.04-.05-.07-.08-.11-.09-.13-.18-.26-.27-.38.08.11.16.21.24.31,29.31,38.93,70.21,68.68,117.54,84.04Z"/>
      <path class="cls-1" d="m415.26,428.92c-24.09,21.08-52.42,37.4-83.53,47.52v-.06c31.11-10.1,59.44-26.42,83.53-47.46Z"/>
      <path class="cls-1" d="m457.58,397.39c-1.23,1.65-2.48,3.28-3.75,4.9,1.27-1.62,2.52-3.25,3.75-4.9Z"/>
      <path class="cls-1" d="m494.04,327.67c-2.02,6.04-4.28,12.02-6.78,17.92-4.01,9.49-8.58,18.66-13.69,27.5-1.17,2.03-2.37,4.05-3.6,6.04-.1.16-.19.32-.29.48-2.5,4.04-5.12,8.01-7.85,11.9,2.72-3.89,5.34-7.86,7.84-11.9.1-.16.2-.31.29-.47,1.23-2,2.44-4.01,3.61-6.05,5.08-8.81,9.63-17.95,13.62-27.4,2.51-5.94,4.78-11.95,6.81-18.02h.05Z"/>
    </g>
  </g>
</svg>